<svg width="36" height="40" viewBox="0 0 36 40" fill="none" xmlns="http://www.w3.org/2000/svg">
<path d="M34 28C34.5098 28.0006 35.0001 28.1958 35.3707 28.5457C35.7414 28.8956 35.9645 29.3739 35.9943 29.8828C36.0242 30.3917 35.8587 30.8928 35.5315 31.2837C35.2043 31.6746 34.7402 31.9258 34.234 31.986L34 32H2C1.49024 31.9994 0.999936 31.8042 0.629263 31.4543C0.258591 31.1044 0.03553 30.6261 0.00565577 30.1172C-0.0242185 29.6083 0.141349 29.1072 0.46853 28.7163C0.79571 28.3254 1.25981 28.0742 1.766 28.014L2 28H34ZM34 14C34.5304 14 35.0391 14.2107 35.4142 14.5858C35.7893 14.9609 36 15.4696 36 16C36 16.5304 35.7893 17.0391 35.4142 17.4142C35.0391 17.7893 34.5304 18 34 18H2C1.46957 18 0.960859 17.7893 0.585786 17.4142C0.210714 17.0391 0 16.5304 0 16C0 15.4696 0.210714 14.9609 0.585786 14.5858C0.960859 14.2107 1.46957 14 2 14H34ZM34 0C34.5304 0 35.0391 0.210714 35.4142 0.585787C35.7893 0.96086 36 1.46957 36 2C36 2.53043 35.7893 3.03914 35.4142 3.41421C35.0391 3.78929 34.5304 4 34 4H2C1.46957 4 0.960859 3.78929 0.585786 3.41421C0.210714 3.03914 0 2.53043 0 2C0 1.46957 0.210714 0.96086 0.585786 0.585787C0.960859 0.210714 1.46957 0 2 0H34Z" fill="black"/>
</svg>
